subject20_rfs_trial11_ground_reaction
version=1
nRows=12
nColumns=19
inDegrees=no
endheader
time	ground_force_r_vx	ground_force_r_vy	ground_force_r_vz	ground_force_r_px	ground_force_r_py	ground_force_r_pz	ground_torque_r_x	ground_torque_r_y	ground_torque_r_z	ground_force_l_vx	ground_force_l_vy	ground_force_l_vz	ground_force_l_px	ground_force_l_py	ground_force_l_pz	ground_torque_l_x	ground_torque_l_y	ground_torque_l_z
      0.00000000	      0.00000000	      0.00000000	      0.00000000	   8759.36967200	      0.00000000	   5469.87841500	      0.00000000	      0.00000000	      0.00000000	      0.00000000	      0.00000000	      0.00000000	 209727.74978100	      0.00000000	 159357.03436900	      0.00000000	      0.00000000	      0.00000000
      0.00500000	      0.00000000	      0.00000000	      0.00000000	   8242.86980200	      0.00000000	   5146.17409900	      0.00000000	      0.00000000	      0.00000000	      0.00000000	      0.00000000	      0.00000000	 204813.55086300	      0.00000000	 155616.20246100	      0.00000000	      0.00000000	      0.00000000
      0.01000000	      0.00000000	      0.00000000	      0.00000000	   7747.08479800	      0.00000000	   4835.50004100	      0.00000000	      0.00000000	      0.00000000	      0.00000000	      0.00000000	      0.00000000	 199976.72184900	      0.00000000	 151934.37655500	      0.00000000	      0.00000000	      0.00000000
      0.01500000	      0.00000000	      0.00000000	      0.00000000	   7271.59069700	      0.00000000	   4537.58854100	      0.00000000	      0.00000000	      0.00000000	      0.00000000	      0.00000000	      0.00000000	 195216.64883700	      0.00000000	 148311.08757500	      0.00000000	      0.00000000	      0.00000000
      0.02000000	      0.00000000	      0.00000000	      0.00000000	   6815.96353500	      0.00000000	   4252.17190200	      0.00000000	      0.00000000	      0.00000000	      0.00000000	      0.00000000	      0.00000000	 190532.71792500	      0.00000000	 144745.86644300	      0.00000000	      0.00000000	      0.00000000
      0.02500000	      0.00000000	      0.00000000	      0.00000000	   6379.77934800	      0.00000000	   3978.98242300	      0.00000000	      0.00000000	      0.00000000	      0.00000000	      0.00000000	      0.00000000	 185924.31521100	      0.00000000	 141238.24408300	      0.00000000	      0.00000000	      0.00000000
      0.03000000	      0.00000000	      0.00000000	      0.00000000	   5962.61417100	      0.00000000	   3717.75240700	      0.00000000	      0.00000000	      0.00000000	      0.00000000	      0.00000000	      0.00000000	 181390.82679300	      0.00000000	 137787.75141600	      0.00000000	      0.00000000	      0.00000000
      0.03500000	      0.00000000	      0.00000000	      0.00000000	   5564.04404000	      0.00000000	   3468.21415400	      0.00000000	      0.00000000	      0.00000000	      0.00000000	      0.00000000	      0.00000000	 176931.63876700	      0.00000000	 134393.91936600	      0.00000000	      0.00000000	      0.00000000
      0.04000000	      0.00000000	      0.00000000	      0.00000000	   5183.64499100	      0.00000000	   3230.09996500	      0.00000000	      0.00000000	      0.00000000	      0.00000000	      0.00000000	      0.00000000	 172546.13723300	      0.00000000	 131056.27885500	      0.00000000	      0.00000000	      0.00000000
      0.04500000	      0.00000000	      0.00000000	      0.00000000	   4820.99306000	      0.00000000	   3003.14214200	      0.00000000	      0.00000000	      0.00000000	      0.00000000	      0.00000000	      0.00000000	 168233.70828700	      0.00000000	 127774.36080600	      0.00000000	      0.00000000	      0.00000000
      0.05000000	      0.00000000	      0.00000000	      0.00000000	   4475.66428200	      0.00000000	   2787.07298700	      0.00000000	      0.00000000	      0.00000000	      0.00000000	      0.00000000	      0.00000000	 163993.73802800	      0.00000000	 124547.69614200	      0.00000000	      0.00000000	      0.00000000
      0.05500000	      0.00000000	      0.00000000	      0.00000000	   4147.23469400	      0.00000000	   2581.62479900	      0.00000000	      0.00000000	      0.00000000	      0.00000000	      0.00000000	      0.00000000	 159825.61255300	      0.00000000	 121375.81578600	      0.00000000	      0.00000000	      0.00000000
